<svg xmlns="http://www.w3.org/2000/svg" viewBox="0 0 265.23 42.14"><defs><style>.cls-1{fill:#89be5c;}.cls-1,.cls-2,.cls-3{fill-rule:evenodd;}.cls-2{fill:#4b79bb;}.cls-3,.cls-4{fill:#615f5b;}</style></defs><g id="Слой_2" data-name="Слой 2"><g id="Layer_1" data-name="Layer 1"><path class="cls-1" d="M21.53,38.75v1.7h3.31v1.69h-5V38.75a17.19,17.19,0,0,1-10.25-4l1.18-1.2a15.53,15.53,0,0,0,19.79,0l1.17,1.2a17.19,17.19,0,0,1-10.24,4Zm11.41-7.61A16.22,16.22,0,0,0,31.83,9.75a15.61,15.61,0,0,0-9.47-4.61V3.45A17.22,17.22,0,0,1,33,8.55a17.91,17.91,0,0,1,1.11,23.79l-1.17-1.2Zm-13.89-26a15.47,15.47,0,0,0-8.24,3.48L9.63,7.42a17.18,17.18,0,0,1,9.42-4V5.14ZM7.29,32.33a17.81,17.81,0,0,1-3.9-9.58H5.06a16.08,16.08,0,0,0,3.41,8.39L7.29,32.33ZM3.39,19.38A17.87,17.87,0,0,1,7.29,9.8L8.47,11a16,16,0,0,0-3.41,8.38Z"/><path class="cls-2" d="M30.64,30l5.29,5.38-1.17,1.19-5.29-5.38a13.08,13.08,0,0,1-16.89.54l1.18-1.2A11.44,11.44,0,0,0,28.9,29.41a11.94,11.94,0,0,0,0-16.69,11.45,11.45,0,0,0-15.14-1.1l-1.18-1.2a13,13,0,0,1,7.3-2.81V0h1.65V7.61a13.11,13.11,0,0,1,8.54,3.92A13.67,13.67,0,0,1,30.64,30Zm-20.4-.65a13.49,13.49,0,0,1-2.68-6.59H9.23a11.78,11.78,0,0,0,2.19,5.38l-1.18,1.21Zm-2.68-10a13.46,13.46,0,0,1,2.68-6.58L11.42,14a11.82,11.82,0,0,0-2.19,5.38Z"/><path class="cls-3" d="M20.7,11.8a9,9,0,0,1,6.45,2.71,9.41,9.41,0,0,1,0,13.11,9,9,0,0,1-12.27.57L6.65,36.56,5.48,35.37,13.7,27a9.29,9.29,0,0,1-2.07-5.09H0V20.23H11.63a9.29,9.29,0,0,1,2.07-5.09L5.48,6.77l1.17-1.2,8.23,8.37A8.94,8.94,0,0,1,20.7,11.8ZM26,15.7a7.37,7.37,0,0,0-10.54,0,7.69,7.69,0,0,0,0,10.73,7.37,7.37,0,0,0,10.54,0A7.67,7.67,0,0,0,26,15.7Z"/><path class="cls-4" d="M50.89,30.43c.44,0,.82.07,1.15.07a2.58,2.58,0,0,0,1.65-.39,1.58,1.58,0,0,0,.45-1.25A10.64,10.64,0,0,0,54,27.35L50.06,9.74h2.61l1.67,8.44,1,6.28.88-6.23,1.49-8.49h2.64L56.81,27.39l-.2,1.1A15.2,15.2,0,0,1,56,31a2.21,2.21,0,0,1-1.16,1.19,6.57,6.57,0,0,1-2.64.4l-1.3-.05Z"/><path class="cls-4" d="M62,15.42h2.62v5.94h3.35V15.42h2.61V29.55H67.93V23.26H64.58v6.29H62Z"/><path class="cls-4" d="M73.18,15.42h2.2v9.51l4.26-9.51h2V29.55H79.54V20l-4.23,9.59H73.18Z"/><path class="cls-4" d="M84.35,15.42h4a3.81,3.81,0,0,1,2.92,1,3.63,3.63,0,0,1,.89,2.52,3.78,3.78,0,0,1-.42,1.87,2.34,2.34,0,0,1-1.44,1.07A2.3,2.3,0,0,1,92,23.07a5.19,5.19,0,0,1,.5,2.37,4.57,4.57,0,0,1-.9,3,4,4,0,0,1-3.13,1.06H84.35Zm3.84,5.69a1.57,1.57,0,0,0,1.23-.46,2.35,2.35,0,0,0,.41-1.54,1.69,1.69,0,0,0-.49-1.37,2.11,2.11,0,0,0-1.42-.42h-1v3.79Zm-.34,6.45a2.26,2.26,0,0,0,1.52-.46,2.31,2.31,0,0,0,.53-1.76,3.76,3.76,0,0,0-.24-1.55,1.19,1.19,0,0,0-.64-.65A3,3,0,0,0,88,23h-1v4.57Z"/><path class="cls-4" d="M95.87,29.12a3.3,3.3,0,0,1-1.27-1.85,11.09,11.09,0,0,1-.37-3.18V20.87a7.81,7.81,0,0,1,.92-4.29,3.64,3.64,0,0,1,3.26-1.36,4,4,0,0,1,2.58.71,3.43,3.43,0,0,1,1.15,2,16.74,16.74,0,0,1,.28,3.46v1.15H96.85v2.83a3.42,3.42,0,0,0,.38,1.87,1.32,1.32,0,0,0,1.21.58,1.14,1.14,0,0,0,1.12-.58,3.9,3.9,0,0,0,.29-1.74v-.86h2.55v.54a5.26,5.26,0,0,1-1,3.4,3.67,3.67,0,0,1-3,1.17A4.48,4.48,0,0,1,95.87,29.12Zm4-8V19.84a5.44,5.44,0,0,0-.28-2.07,1.16,1.16,0,0,0-1.18-.62,1.44,1.44,0,0,0-1,.29,1.66,1.66,0,0,0-.45,1,11.87,11.87,0,0,0-.12,1.94v.76Z"/><path class="cls-4" d="M104.79,15.42h2.62v1.12a3.46,3.46,0,0,1,2.69-1.32,2.52,2.52,0,0,1,2.58,1.65,10,10,0,0,1,.64,3.65V24a9.46,9.46,0,0,1-.79,4.19,2.8,2.8,0,0,1-2.73,1.6,3.24,3.24,0,0,1-2.39-1.25v5.7h-2.62Zm5.66,11.35a11.34,11.34,0,0,0,.26-2.82V20.52a7.46,7.46,0,0,0-.3-2.4,1.17,1.17,0,0,0-1.22-.85,2.77,2.77,0,0,0-1.78.74v9a3.05,3.05,0,0,0,1.88.64A1.12,1.12,0,0,0,110.45,26.77Z"/><path class="cls-4" d="M117,29.07a3.39,3.39,0,0,1-1.23-1.88,11.94,11.94,0,0,1-.33-3.07V20.87a12.28,12.28,0,0,1,.33-3.13A3.24,3.24,0,0,1,117,15.87a4.37,4.37,0,0,1,2.57-.65,4.71,4.71,0,0,1,2.36.49,2.61,2.61,0,0,1,1.17,1.45,8,8,0,0,1,.33,2.51v.83h-2.37v-.85a4.29,4.29,0,0,0-.31-1.95,1.2,1.2,0,0,0-1.16-.55,1.43,1.43,0,0,0-1,.29,1.72,1.72,0,0,0-.44,1,11.57,11.57,0,0,0-.12,1.93v4.45a8.85,8.85,0,0,0,.15,1.87,1.25,1.25,0,0,0,1.42,1.16,1.14,1.14,0,0,0,1.17-.6,4.74,4.74,0,0,0,.27-1.85V24.22h2.37v1a5.72,5.72,0,0,1-.84,3.43,3.56,3.56,0,0,1-3,1.12A4.23,4.23,0,0,1,117,29.07Z"/><path class="cls-4" d="M125.74,15.42h2.2v9.51l4.26-9.51h2.05V29.55H132.1V20l-4.23,9.59h-2.13Z"/><path class="cls-4" d="M138.5,17.37h-2.64v-2h7.92v2h-2.66V29.55H138.5Z"/><path class="cls-4" d="M146.59,29.12a3.35,3.35,0,0,1-1.27-1.85,11.45,11.45,0,0,1-.37-3.18V20.87a7.81,7.81,0,0,1,.92-4.29,3.65,3.65,0,0,1,3.27-1.36,4,4,0,0,1,2.57.71,3.38,3.38,0,0,1,1.15,2,16.74,16.74,0,0,1,.28,3.46v1.15h-5.57v2.83a3.51,3.51,0,0,0,.38,1.87,1.32,1.32,0,0,0,1.21.58,1.13,1.13,0,0,0,1.12-.58,3.88,3.88,0,0,0,.3-1.74v-.86h2.54v.54a5.32,5.32,0,0,1-1,3.4,3.7,3.7,0,0,1-3,1.17A4.51,4.51,0,0,1,146.59,29.12Zm4-8V19.84a5.66,5.66,0,0,0-.28-2.07,1.18,1.18,0,0,0-1.19-.62,1.41,1.41,0,0,0-1,.29,1.67,1.67,0,0,0-.46,1,11.87,11.87,0,0,0-.12,1.94v.76Z"/><path class="cls-4" d="M157,17.37h-2.64v-2h7.92v2h-2.67V29.55H157Z"/><path class="cls-4" d="M169.69,9.74h4.92a4.57,4.57,0,0,1,3.72,1.4,6.2,6.2,0,0,1,1.17,4.08A5.32,5.32,0,0,1,178.25,19a4.69,4.69,0,0,1-3.62,1.35h-2.17v9.22h-2.77Zm4,8.61a5.26,5.26,0,0,0,1.89-.27,1.74,1.74,0,0,0,1-.93,5,5,0,0,0,.29-1.91,8,8,0,0,0-.22-2.22,1.56,1.56,0,0,0-.87-1,5.14,5.14,0,0,0-2-.3h-1.29v6.63Z"/><path class="cls-4" d="M182.58,29.12a3.31,3.31,0,0,1-1.28-1.85,11.5,11.5,0,0,1-.36-3.18V20.87a7.82,7.82,0,0,1,.91-4.29,3.66,3.66,0,0,1,3.27-1.36,4,4,0,0,1,2.58.71,3.48,3.48,0,0,1,1.15,2,17.47,17.47,0,0,1,.28,3.46v1.15h-5.58v2.83a3.51,3.51,0,0,0,.38,1.87,1.33,1.33,0,0,0,1.21.58,1.14,1.14,0,0,0,1.13-.58,4,4,0,0,0,.29-1.74v-.86h2.54v.54a5.32,5.32,0,0,1-.95,3.4,3.7,3.7,0,0,1-3,1.17A4.48,4.48,0,0,1,182.58,29.12Zm4-8V19.84a5.44,5.44,0,0,0-.28-2.07,1.17,1.17,0,0,0-1.19-.62,1.43,1.43,0,0,0-1,.29,1.66,1.66,0,0,0-.45,1,10.66,10.66,0,0,0-.13,1.94v.76Z"/><path class="cls-4" d="M191.5,15.42H194V27.69h2.49V15.42H199V27.69h2.49V15.42H204V29.55H191.5Z"/><path class="cls-4" d="M208.15,29.12a3.31,3.31,0,0,1-1.28-1.85,11.5,11.5,0,0,1-.36-3.18V20.87a7.82,7.82,0,0,1,.91-4.29,3.66,3.66,0,0,1,3.27-1.36,4,4,0,0,1,2.58.71,3.43,3.43,0,0,1,1.15,2,17.47,17.47,0,0,1,.28,3.46v1.15h-5.58v2.83a3.51,3.51,0,0,0,.38,1.87,1.33,1.33,0,0,0,1.21.58,1.14,1.14,0,0,0,1.13-.58,4,4,0,0,0,.29-1.74v-.86h2.54v.54a5.32,5.32,0,0,1-.95,3.4,3.7,3.7,0,0,1-3,1.17A4.48,4.48,0,0,1,208.15,29.12Zm4-8V19.84a5.44,5.44,0,0,0-.28-2.07,1.17,1.17,0,0,0-1.19-.62,1.43,1.43,0,0,0-1,.29,1.66,1.66,0,0,0-.45,1,10.66,10.66,0,0,0-.13,1.94v.76Z"/><path class="cls-4" d="M218.56,17.37h-2.64v-2h7.92v2h-2.67V29.55h-2.61Z"/><path class="cls-4" d="M225.43,15.42H228v5.94h3.35V15.42H234V29.55h-2.62V23.26H228v6.29h-2.61Z"/><path class="cls-4" d="M238,29.12a3.25,3.25,0,0,1-1.27-1.85,11.09,11.09,0,0,1-.37-3.18V20.87a7.81,7.81,0,0,1,.92-4.29,3.64,3.64,0,0,1,3.26-1.36,4,4,0,0,1,2.58.71,3.43,3.43,0,0,1,1.15,2,16.74,16.74,0,0,1,.28,3.46v1.15H239v2.83a3.52,3.52,0,0,0,.37,1.87,1.34,1.34,0,0,0,1.21.58,1.14,1.14,0,0,0,1.13-.58,4,4,0,0,0,.29-1.74v-.86h2.54v.54a5.26,5.26,0,0,1-.95,3.4,3.68,3.68,0,0,1-3,1.17A4.48,4.48,0,0,1,238,29.12Zm-1-19.38h2.64v2.72h-2.64ZM242,21.11V19.84a5.44,5.44,0,0,0-.28-2.07,1.17,1.17,0,0,0-1.18-.62,1.44,1.44,0,0,0-1,.29,1.66,1.66,0,0,0-.45,1,11.87,11.87,0,0,0-.12,1.94v.76Zm-.73-11.37h2.64v2.72h-2.64Z"/><path class="cls-4" d="M246.94,15.42h4a3.79,3.79,0,0,1,2.92,1,3.58,3.58,0,0,1,.89,2.52,3.89,3.89,0,0,1-.41,1.87,2.39,2.39,0,0,1-1.44,1.07,2.3,2.3,0,0,1,1.69,1.22,5.06,5.06,0,0,1,.51,2.37,4.57,4.57,0,0,1-.91,3A4,4,0,0,1,251,29.55h-4.08Zm3.84,5.69a1.55,1.55,0,0,0,1.22-.46,2.29,2.29,0,0,0,.42-1.54,1.73,1.73,0,0,0-.49-1.37,2.13,2.13,0,0,0-1.42-.42h-1v3.79Zm-.34,6.45A2.23,2.23,0,0,0,252,27.1a2.27,2.27,0,0,0,.54-1.76,3.57,3.57,0,0,0-.25-1.55,1.18,1.18,0,0,0-.63-.65,3,3,0,0,0-1.05-.15h-1.05v4.57Z"/><path class="cls-4" d="M258.17,29.28a3.13,3.13,0,0,1-1-1.23,3.49,3.49,0,0,1-.37-1.58,4.76,4.76,0,0,1,.71-2.71,5.3,5.3,0,0,1,1.81-1.65,28.37,28.37,0,0,1,3.06-1.39v-1a4.8,4.8,0,0,0-.29-2,1.12,1.12,0,0,0-1.13-.57c-1,0-1.49.66-1.49,2v.71l-2.6-.1a5.21,5.21,0,0,1,1.08-3.46,4.14,4.14,0,0,1,3.18-1.11,3.6,3.6,0,0,1,2.94,1.11,5.14,5.14,0,0,1,.92,3.36v6.46a24.43,24.43,0,0,0,.25,3.4h-2.4c-.18-.93-.29-1.63-.34-2.08a3.64,3.64,0,0,1-1,1.61,2.61,2.61,0,0,1-1.84.66A2.44,2.44,0,0,1,258.17,29.28Zm3.49-2.19a3.48,3.48,0,0,0,.71-.77v-4a15,15,0,0,0-1.63,1,4.23,4.23,0,0,0-.95,1,2.33,2.33,0,0,0-.38,1.35,2.38,2.38,0,0,0,.32,1.36,1,1,0,0,0,.92.47A1.57,1.57,0,0,0,261.66,27.09Z"/></g></g></svg>